<?xml version="1.0" encoding="UTF-8" standalone="no"?>
<svg
   width="256"
   height="256"
   viewBox="0 0 256 256"
   fill="none"
   version="1.1"
   id="svg4"
   sodipodi:docname="logo.svg"
   inkscape:export-filename="logo.jpg"
   inkscape:export-xdpi="192"
   inkscape:export-ydpi="192"
   inkscape:version="1.2 (dc2aedaf03, 2022-05-15)"
   xmlns:inkscape="http://www.inkscape.org/namespaces/inkscape"
   xmlns:sodipodi="http://sodipodi.sourceforge.net/DTD/sodipodi-0.dtd"
   xmlns="http://www.w3.org/2000/svg"
   xmlns:svg="http://www.w3.org/2000/svg">
  <defs
     id="defs8" />
  <sodipodi:namedview
     id="namedview6"
     pagecolor="#ffffff"
     bordercolor="#666666"
     borderopacity="1.0"
     inkscape:showpageshadow="2"
     inkscape:pageopacity="0.0"
     inkscape:pagecheckerboard="0"
     inkscape:deskcolor="#d1d1d1"
     showgrid="false"
     inkscape:zoom="3.0546875"
     inkscape:cx="111.95908"
     inkscape:cy="128"
     inkscape:window-width="1920"
     inkscape:window-height="1011"
     inkscape:window-x="0"
     inkscape:window-y="0"
     inkscape:window-maximized="1"
     inkscape:current-layer="svg4" />
  <path
     fill-rule="evenodd"
     clip-rule="evenodd"
     d="M 224.16296,36.985938 C 214.56607,27.214897 142.06864,1.8749399 128.25218,1.8749399 c -13.82832,0 -86.325416,25.3399571 -95.898186,35.1109981 -6.008855,6.108367 -7.44252,11.336849 -7.547094,26.888966 l 0.0034,4.734044 c 0.02833,4.180803 0.113944,9.002836 0.213672,14.615797 l 0.001,0.05847 0.0089,0.51727 c 0.218733,12.59044 0.515438,29.665405 0.515438,53.142305 0,24.96313 8.191663,45.24142 19.890482,61.47461 L 59.730409,186.30578 C 50.314435,172.94704 43.841297,156.61046 43.841297,136.9428 c 0,-23.59106 -0.295413,-40.731613 -0.514038,-53.412411 l -0.01036,-0.594811 c -0.47559,-26.432546 -0.390186,-30.380723 1.829237,-32.652702 7.524047,-6.393981 72.764944,-29.784727 83.106024,-29.784727 10.34108,0 75.59478,23.390746 82.97204,29.660551 0.72696,0.736434 1.23744,1.622028 1.58316,3.272918 h 18.46467 c -0.76357,-7.954944 -2.70643,-11.963432 -7.10909,-16.44568 z m 7.42249,40.171256 h -18.28806 c -0.0291,1.785512 -0.0613,3.695951 -0.098,5.741121 -0.23155,12.738315 -0.53633,30.058175 -0.53633,54.044485 0,64.38675 -69.8136,93.21512 -84.42272,98.51705 -7.97391,-2.87767 -32.354172,-12.71257 -52.873177,-31.53588 L 60.98592,216.11206 c 27.802023,26.40735 62.20986,37.35476 64.62013,38.09464 0.86588,0.27355 1.75654,0.3974 2.64612,0.3974 0.89065,0 1.78024,-0.12385 2.64612,-0.3974 4.08495,-1.2536 100.05712,-31.82021 100.05712,-117.2639 0,-23.5146 0.29617,-40.589665 0.51479,-53.180215 v -6.47e-4 -5.39e-4 l 0.009,-0.515438 0.001,-0.05675 c 0.0377,-2.120988 0.0733,-4.128894 0.10447,-6.032011 z m -65.21063,8.19834 c -2.03548,0 -3.68432,1.679645 -3.68432,3.751522 v 13.635434 c 0,2.07101 1.64884,3.75108 3.68432,3.75108 h 13.39321 c 2.0344,0 3.68433,-1.68007 3.68433,-3.75108 V 89.107056 c 0,-2.071877 -1.64993,-3.751522 -3.68433,-3.751522 z m -20.76186,21.140196 c -2.0344,0 -3.68432,1.68007 -3.68432,3.7511 v 13.63553 c 0,2.07209 1.64992,3.7511 3.68432,3.7511 h 13.39322 c 2.0344,0 3.68432,-1.67901 3.68432,-3.7511 v -13.63553 c 0,-2.07103 -1.64992,-3.7511 -3.68432,-3.7511 z m -24.44618,24.59803 c 0,-2.07101 1.64993,-3.75109 3.68432,-3.75109 h 13.39214 c 2.03548,0 3.6854,1.68008 3.6854,3.75109 v 13.63554 c 0,2.07101 -1.64992,3.75109 -3.6854,3.75109 H 124.8511 c -2.03439,0 -3.68432,-1.68008 -3.68432,-3.75109 z m -17.07754,17.38878 c -2.03439,0 -3.68432,1.68009 -3.68432,3.75218 v 13.63445 c 0,2.0721 1.64993,3.7511 3.68432,3.7511 h 13.39322 c 2.0344,0 3.68432,-1.679 3.68432,-3.7511 v -13.63445 c 0,-2.07209 -1.64992,-3.75218 -3.68432,-3.75218 z M 79.643387,131.09376 c 0,-2.07101 1.649706,-3.75109 3.684751,-3.75109 h 13.392468 c 2.035477,0 3.684314,1.68008 3.684314,3.75109 v 13.63554 c 0,2.07101 -1.648837,3.75109 -3.684314,3.75109 H 83.328138 c -2.035045,0 -3.684751,-1.68008 -3.684751,-3.75109 z"
     fill="#c830a1"
     id="path2"
     style="stroke-width:1.07697" />
</svg>
