<svg
	xmlns="http://www.w3.org/2000/svg"
	width="24"
	height="24"
	viewBox="0 0 24 24"
>
	<path
		fill="#666"
		d="M22 18.055v2.458c0 1.925-4.655 3.487-10 3.487-5.344 0-10-1.562-10-3.487v-2.458c2.418 1.738 7.005 2.256 10 2.256 3.006 0 7.588-.523 10-2.256zm-10-3.409c-3.006 0-7.588-.523-10-2.256v2.434c0 1.926 4.656 3.487 10 3.487 5.345 0 10-1.562 10-3.487v-2.434c-2.418 1.738-7.005 2.256-10 2.256zm0-14.646c-5.344 0-10 1.562-10 3.488s4.656 3.487 10 3.487c5.345 0 10-1.562 10-3.487 0-1.926-4.655-3.488-10-3.488zm0 8.975c-3.006 0-7.588-.523-10-2.256v2.44c0 1.926 4.656 3.487 10 3.487 5.345 0 10-1.562 10-3.487v-2.44c-2.418 1.738-7.005 2.256-10 2.256z"
	/>
</svg>
