<?xml version="1.0" ?><!DOCTYPE svg  PUBLIC '-//W3C//DTD SVG 1.1//EN'  'http://www.w3.org/Graphics/SVG/1.1/DTD/svg11.dtd'><svg enable-background="new 0 0 512 512" height="512px" id="Layer_1" version="1.1" viewBox="0 0 512 512" width="512px" xml:space="preserve" xmlns="http://www.w3.org/2000/svg" xmlns:xlink="http://www.w3.org/1999/xlink"><g><polyline fill="#1E416F" points="-1.016,512 510.984,512 510.984,0 -1.016,0 -1.016,512  "/><polyline fill="#010101" opacity="0.102" points="411.984,240 109.984,240 110.984,302 263.984,512 510.984,512 510.984,353    411.984,240  "/><path d="M137.519,311.898c-10.036,0-17.336-1.757-21.898-5.272c-4.562-3.513-6.843-9.775-6.843-18.786v-15.825   c0-8.084-3.193-12.125-9.581-12.125v-12.318c6.388,0,9.581-4.319,9.581-12.96v-15.12c0-9.31,2.256-15.854,6.768-19.63   c4.512-3.78,11.837-5.669,21.974-5.669v12.319c-7.299,0-10.949,3.956-10.949,11.869v14.543c0,10.919-3.649,17.813-10.949,20.68   v0.255c7.3,2.738,10.949,9.504,10.949,20.295v13.537c0,4.32,0.856,7.381,2.567,9.186c1.71,1.803,4.505,2.703,8.382,2.703V311.898" fill="#FFFFFF"/><path d="M170.367,266.199c0,2.864,0.713,5.038,2.139,6.521c1.425,1.483,3.336,2.226,5.73,2.226   c1.199,0,2.396-0.11,3.593-0.332c1.198-0.222,2.395-0.445,3.592-0.673v15.118c-2.538,0.671-5.224,1.223-8.061,1.657   c-2.837,0.436-5.789,0.652-8.854,0.652c-2.81,0-5.364-0.467-7.667-1.4c-2.303-0.933-4.267-2.277-5.893-4.03   c-1.625-1.755-2.883-3.872-3.774-6.352c-0.891-2.481-1.336-5.274-1.336-8.383v-82.484h20.53V266.199" fill="#FFFFFF"/><path d="M236.063,248.94c0-9.124-3.9-13.686-11.697-13.686c-3.323,0-6.199,1.307-8.629,3.923   c-2.43,2.616-3.911,5.871-4.438,9.763H236.063 M255.224,261.259h-43.797c0.713,10.035,6.921,15.055,18.626,15.055   c7.472,0,14.037-1.938,19.697-5.817v15.655c-6.259,3.478-14.385,5.217-24.38,5.217c-10.92,0-19.396-3.036-25.427-9.109   c-6.03-6.074-9.046-14.543-9.046-25.406c0-11.277,3.238-20.206,9.709-26.785c6.474-6.58,14.428-9.869,23.867-9.869   c9.794,0,17.368,2.904,22.721,8.713c5.353,5.81,8.031,13.69,8.031,23.642V261.259z" fill="#FFFFFF"/><path d="M263.436,287.605v-18.478c3.492,2.424,6.976,4.227,10.447,5.411c3.471,1.183,6.754,1.774,9.849,1.774   c3.763,0,6.731-0.441,8.906-1.325s3.261-2.224,3.261-4.022c0-1.324-0.492-2.43-1.476-3.313c-0.984-0.884-2.249-1.657-3.796-2.32   s-3.24-1.259-5.079-1.785c-1.839-0.528-3.606-1.126-5.304-1.798c-2.736-1.012-5.146-2.104-7.229-3.283   c-2.081-1.176-3.828-2.536-5.238-4.083c-1.412-1.547-2.488-3.336-3.229-5.369c-0.741-2.03-1.112-4.438-1.112-7.217   c0-3.792,0.854-7.06,2.555-9.805c1.705-2.745,3.971-4.987,6.801-6.725c2.831-1.741,6.074-3.02,9.729-3.839   c3.659-0.82,7.461-1.229,11.41-1.229c3.079,0,6.21,0.238,9.388,0.715c3.18,0.478,6.309,1.173,9.389,2.086v16.702   c-2.766-1.483-5.73-2.595-8.896-3.336c-3.164-0.742-6.271-1.112-9.324-1.112c-1.424,0-2.771,0.103-4.041,0.31   c-1.269,0.207-2.389,0.509-3.357,0.907c-0.969,0.401-1.731,0.914-2.287,1.541c-0.557,0.629-0.835,1.34-0.835,2.139   c0,1.24,0.41,2.302,1.229,3.187c0.82,0.884,1.887,1.647,3.197,2.288c1.312,0.642,2.772,1.216,4.383,1.721   c1.611,0.507,3.209,1.023,4.792,1.551c2.864,0.97,5.457,2.029,7.773,3.176c2.316,1.148,4.302,2.495,5.956,4.042   c1.653,1.546,2.922,3.362,3.806,5.443c0.884,2.08,1.325,4.555,1.325,7.422c0,4.02-0.887,7.451-2.662,10.295   c-1.775,2.846-4.133,5.162-7.078,6.951s-6.336,3.094-10.18,3.912c-3.843,0.82-7.831,1.23-11.965,1.23   C276.943,291.368,269.908,290.114,263.436,287.605" fill="#FFFFFF"/><path d="M323.656,287.605v-18.478c3.493,2.424,6.977,4.227,10.446,5.411c3.473,1.183,6.755,1.774,9.849,1.774   c3.763,0,6.734-0.441,8.908-1.325c2.172-0.884,3.261-2.224,3.261-4.022c0-1.324-0.492-2.43-1.477-3.313s-2.247-1.657-3.794-2.32   s-3.242-1.259-5.081-1.785c-1.839-0.528-3.606-1.126-5.303-1.798c-2.737-1.012-5.147-2.104-7.229-3.283   c-2.08-1.176-3.828-2.536-5.239-4.083c-1.41-1.547-2.487-3.336-3.228-5.369c-0.742-2.03-1.113-4.438-1.113-7.217   c0-3.792,0.852-7.06,2.556-9.805s3.97-4.987,6.801-6.725c2.831-1.741,6.074-3.02,9.729-3.839c3.659-0.82,7.461-1.229,11.409-1.229   c3.081,0,6.211,0.238,9.388,0.715c3.18,0.478,6.311,1.173,9.389,2.086v16.702c-2.766-1.483-5.729-2.595-8.896-3.336   c-3.164-0.742-6.273-1.112-9.322-1.112c-1.425,0-2.773,0.103-4.042,0.31s-2.388,0.509-3.356,0.907   c-0.972,0.401-1.734,0.914-2.289,1.541c-0.558,0.629-0.834,1.34-0.834,2.139c0,1.24,0.409,2.302,1.229,3.187   c0.82,0.884,1.886,1.647,3.198,2.288c1.31,0.642,2.771,1.216,4.383,1.721c1.609,0.507,3.208,1.023,4.791,1.551   c2.865,0.97,5.456,2.029,7.773,3.176c2.315,1.148,4.3,2.495,5.956,4.042c1.653,1.546,2.922,3.362,3.805,5.443   c0.886,2.08,1.325,4.555,1.325,7.422c0,4.02-0.888,7.451-2.661,10.295c-1.776,2.846-4.136,5.162-7.078,6.951   c-2.945,1.789-6.339,3.094-10.18,3.912c-3.844,0.82-7.831,1.23-11.966,1.23C337.165,291.368,330.13,290.114,323.656,287.605" fill="#FFFFFF"/><path d="M422.201,259.89c-6.389,0-9.581,4.106-9.581,12.318v15.226c0,9.281-2.148,15.68-6.448,19.192   c-4.299,3.516-11.273,5.272-20.924,5.272v-12.319c3.833,0,6.617-0.891,8.349-2.672c1.731-1.782,2.599-4.811,2.599-9.088v-14.073   c0-10.521,3.193-17.1,9.581-19.738v-0.277c-6.388-2.865-9.581-9.987-9.581-21.363V218.38c0-7.913-3.65-11.869-10.947-11.869   v-12.319c9.609,0,16.572,1.889,20.893,5.669c4.32,3.776,6.479,10.229,6.479,19.353v15.547c0,8.539,3.192,12.81,9.581,12.81V259.89" fill="#FFFFFF"/></g></svg>