<?xml version="1.0" encoding="iso-8859-1"?>
<!-- Uploaded to: SVG Repo, www.svgrepo.com, Generator: SVG Repo Mixer Tools -->
<svg version="1.1" id="Layer_1" xmlns="http://www.w3.org/2000/svg" xmlns:xlink="http://www.w3.org/1999/xlink" 
	 viewBox="0 0 512 512" xml:space="preserve">
<path style="fill:#333333;" d="M368,512H144c-17.6,0-32-14.4-32-32V32c0-17.6,14.4-32,32-32h224c17.6,0,32,14.4,32,32v448
	C400,497.6,385.6,512,368,512z"/>
<rect x="135.456" y="50.672" style="fill:#FFFFFF;" width="241.28" height="372"/>
<g>
	<path style="fill:#D6D6D6;" d="M256.176,489.456c-12.496,0-22.656-10.176-22.656-22.672s10.16-22.672,22.656-22.672
		s22.672,10.176,22.672,22.672S268.672,489.456,256.176,489.456z M256.176,452.112c-8.08,0-14.656,6.576-14.656,14.672
		s6.576,14.672,14.656,14.672c8.096,0,14.672-6.576,14.672-14.672S264.272,452.112,256.176,452.112z"/>
	<circle style="fill:#D6D6D6;" cx="256.16" cy="25.328" r="7.792"/>
	<circle style="fill:#D6D6D6;" cx="312.816" cy="25.328" r="7.792"/>
	<circle style="fill:#D6D6D6;" cx="337.44" cy="25.328" r="7.792"/>
</g>
<g>
	<path style="fill:#0BA4E0;" d="M73.728,349.312C16.4,243.616,72.176,173.616,74.576,170.688l12.384,10.128
		c-2.112,2.608-51.184,64.976,0.832,160.864L73.728,349.312z"/>
	<path style="fill:#0BA4E0;" d="M42.56,372.528c-72.208-133.12,0.112-223.808,0.848-224.72l12.384,10.144
		c-2.72,3.344-66.048,83.632,0.832,206.96L42.56,372.528z"/>
	<path style="fill:#0BA4E0;" d="M438.288,349.312l-14.064-7.632c52.256-96.336,1.36-160.208,0.848-160.848l12.368-10.16
		C439.84,173.616,495.616,243.616,438.288,349.312z"/>
	<path style="fill:#0BA4E0;" d="M469.44,372.528l-14.064-7.632c66.88-123.328,3.568-203.6,0.832-206.96l12.384-10.144
		C469.328,148.72,541.648,239.408,469.44,372.528z"/>
</g>
</svg>